@startuml pons.net
!pragma useIntermediatePackages false

class pons.net.plans.CommonContactPlan {
}
class pons.net.plans.Contact {
  timespan: Tuple[int, int] {static}
  nodes: Tuple[int, int] {static}
  bw: int {static}
  loss: float {static}
  delay: float {static}
  jitter: float {static}
}
class pons.net.plans.core.CoreContactPlan {
  loop: None
  symmetric: bool
  contacts: None
  max_time: None
  last_at: None
  last_cache: None
}
class pons.net.plans.ion.IonContactPlan {
  name: str
  contacts: None
  contacts: None
}
class pons.net.netplan.NetworkPlan {
  G: Graph
  full_graph: None
  mapping: None
}
class pons.net.common.NetworkSettings {
  name: None
  bandwidth: int
  loss: float
  delay: float
  range: None
  range_sq: None
  contactplan: CommonContactPlan
  env: None
}
pons.net.plans.CommonContactPlan <|-- pons.net.plans.core.CoreContactPlan
pons.net.plans.CommonContactPlan <|-- pons.net.plans.ion.IonContactPlan
pons.net.plans.CommonContactPlan <|-- pons.net.netplan.NetworkPlan
pons.net.common.NetworkSettings *-- pons.net.plans.CommonContactPlan
footer Generated by //py2puml//
@enduml

