@startuml pons.routing
!pragma useIntermediatePackages false

class pons.routing.directdelivery.DirectDeliveryRouter {
}
class pons.routing.epidemic.EpidemicRouter {
}
class pons.routing.firstcontact.FirstContactRouter {
  store: None
}
class pons.routing.prophet.PRoPHETConfig {
  p_encounter_first: float
  p_first_threshold: float
  p_encounter: float
  beta: float
  delta: float
  gamma: float
}
class pons.routing.prophet.PRoPHETRouter {
  store: None
  predictabilities: None
  config: None
}
class pons.routing.static.RouteEntry {
  dst: str
  next_hop: int
  hops: Optional[int]
  src: Optional[str]
}
class pons.routing.router.Router {
  scan_interval: None
  peers: None
  history: None
  store: None
  capacity: None
  used: None
  apps: None
  stats: None
}
class pons.routing.sprayandwait.SprayAndWaitRouter {
  store: None
  copies: None
  binary: None
}
class pons.routing.static.StaticRouter {
  routes: None
  graph: Graph
  shortest_paths_only: None
  pick_random_next_hop: None
}
pons.routing.router.Router <|-- pons.routing.directdelivery.DirectDeliveryRouter
pons.routing.router.Router <|-- pons.routing.epidemic.EpidemicRouter
pons.routing.router.Router <|-- pons.routing.firstcontact.FirstContactRouter
pons.routing.router.Router <|-- pons.routing.prophet.PRoPHETRouter
pons.routing.router.Router <|-- pons.routing.sprayandwait.SprayAndWaitRouter
pons.routing.router.Router <|-- pons.routing.static.StaticRouter
footer Generated by //py2puml//
@enduml